<svg width="26" height="22" viewBox="0 0 26 22" fill="none" xmlns="http://www.w3.org/2000/svg">
<path d="M26.0008 8C25.9985 10.121 25.1549 12.1545 23.6551 13.6543C22.1553 15.1541 20.1218 15.9977 18.0008 16H8.00079V21C8.00094 21.1979 7.94238 21.3914 7.83251 21.556C7.72264 21.7206 7.5664 21.8489 7.38358 21.9246C7.20075 22.0004 6.99956 22.0202 6.80548 21.9815C6.6114 21.9429 6.43314 21.8475 6.29329 21.7075L0.293287 15.7075C0.20031 15.6146 0.126551 15.5043 0.0762267 15.3829C0.0259024 15.2615 0 15.1314 0 15C0 14.8686 0.0259024 14.7385 0.0762267 14.6171C0.126551 14.4957 0.20031 14.3854 0.293287 14.2925L6.29329 8.2925C6.43314 8.15249 6.6114 8.05712 6.80548 8.01847C6.99956 7.97982 7.20075 7.99963 7.38358 8.07538C7.5664 8.15113 7.72264 8.27942 7.83251 8.44402C7.94238 8.60861 8.00094 8.8021 8.00079 9V14H18.0008C19.5921 14 21.1182 13.3679 22.2434 12.2426C23.3686 11.1174 24.0008 9.5913 24.0008 8C24.0008 6.4087 23.3686 4.88258 22.2434 3.75736C21.1182 2.63214 19.5921 2 18.0008 2H7.00079C6.73557 2 6.48122 1.89464 6.29368 1.70711C6.10614 1.51957 6.00079 1.26522 6.00079 1C6.00079 0.734784 6.10614 0.48043 6.29368 0.292893C6.48122 0.105357 6.73557 0 7.00079 0H18.0008C20.1218 0.00231607 22.1553 0.845915 23.6551 2.3457C25.1549 3.84549 25.9985 5.87898 26.0008 8Z" fill="#313131"/>
</svg>
