<svg width="24" height="26" viewBox="0 0 24 26" fill="none" xmlns="http://www.w3.org/2000/svg">
<path d="M22.465 6.23524L12.84 0.968831C12.5828 0.826733 12.2938 0.752197 12 0.752197C11.7062 0.752197 11.4172 0.826733 11.16 0.968831L1.535 6.23742C1.26013 6.38782 1.03068 6.60926 0.870604 6.87861C0.710531 7.14796 0.625711 7.45535 0.625 7.76867V18.2293C0.625711 18.5426 0.710531 18.85 0.870604 19.1194C1.03068 19.3887 1.26013 19.6102 1.535 19.7605L11.16 25.0291C11.4172 25.1712 11.7062 25.2458 12 25.2458C12.2938 25.2458 12.5828 25.1712 12.84 25.0291L22.465 19.7605C22.7399 19.6102 22.9693 19.3887 23.1294 19.1194C23.2895 18.85 23.3743 18.5426 23.375 18.2293V7.76977C23.3749 7.45588 23.2903 7.14781 23.1302 6.87783C22.9701 6.60785 22.7404 6.3859 22.465 6.23524ZM12 2.50008L20.7883 7.31258L17.5311 9.0943L8.74281 4.2818L12 2.50008ZM12 12.1251L3.21172 7.31258L6.92062 5.28149L15.7089 10.094L12 12.1251ZM21.625 18.2337L12.875 23.0232V13.6377L16.375 11.7226V15.6251C16.375 15.8571 16.4672 16.0797 16.6313 16.2438C16.7954 16.4079 17.0179 16.5001 17.25 16.5001C17.4821 16.5001 17.7046 16.4079 17.8687 16.2438C18.0328 16.0797 18.125 15.8571 18.125 15.6251V10.7645L21.625 8.8493V18.2293V18.2337Z" fill="#313131"/>
</svg>
